<svg width="5" height="10" viewBox="0 0 5 10" fill="none" xmlns="http://www.w3.org/2000/svg">
<path fill-rule="evenodd" clip-rule="evenodd" d="M0.194777 0.474879C0.0189593 0.662433 0.017751 0.966488 0.195985 1.15404L2.83143 3.93342L2.87799 3.97624C3.05612 4.11893 3.31075 4.10401 3.47247 3.9315C3.56008 3.83805 3.60478 3.71514 3.60478 3.59288C3.60478 3.46998 3.56007 3.34644 3.47126 3.25298L0.835815 0.472959L0.789256 0.430138C0.611121 0.287454 0.356496 0.302368 0.194777 0.474879ZM0.15505 8.89562C0.0190534 9.08386 0.0334992 9.35367 0.194665 9.5256C0.371086 9.71315 0.658073 9.71379 0.835703 9.52624L4.80398 5.33988L4.84471 5.29084C4.90645 5.20544 4.9375 5.10294 4.9375 4.99998C4.9375 4.87772 4.89279 4.75482 4.80518 4.66136C4.62876 4.47317 4.34178 4.47253 4.16415 4.66008L0.195873 8.84644L0.15505 8.89562Z" fill="#222223"/>
</svg>
